<?xml version="1.0" encoding="UTF-8" standalone="no"?>
<!-- Created with Inkscape (http://www.inkscape.org/) -->
<svg id="svg15598" xmlns:rdf="http://www.w3.org/1999/02/22-rdf-syntax-ns#" xmlns="http://www.w3.org/2000/svg" height="auto" width="100%" version="1.1" xmlns:cc="http://creativecommons.org/ns#" xmlns:dc="http://purl.org/dc/elements/1.1/" viewBox="0 0 1500 2250">
  <g id="layer16" transform="translate(0 1197.6)" fill="none">
  <g stroke-width="15">
   <path id="path17237" d="m871.81-324.62s34.588 129.08 167.08 146.53c132.49 17.443 199.31-98.289 199.31-98.289l240.81-417.1" stroke="#00f"/>
   <path id="path19148" d="m861.47-1177.4v530.12s0 14.264 6.8608 26.77 18.891 20.17 18.891 20.17 200.75 140.57 137.32 377.29c-63.38 236.74-307.52 258.1-307.52 258.1s-14.25 0.62218-26.445 8.022c-12.194 7.3998-19.326 19.753-19.326 19.753l-307.06 531.84" stroke="#f80"/>
   <path id="path19201" d="m1105.2 783.67v-690s0-29.459-10.677-56.915-30.579-49.176-30.579-49.176-98.457-98.457-227.1-151.74c-128.64-53.284-267.88-53.284-267.88-53.284s-90.535-7.6922-141.42-58.579c-50.886-50.886-58.579-141.42-58.579-141.42s-2.3077-85.15-58.579-141.42c-56.271-56.271-141.42-58.579-141.42-58.579" stroke="#f00"/>
   <path id="path17381" d="m732.16 690.17h129.91s131.42-41.5 172.93 89.92c41.5 131.43-110.14 183.86-110.14 183.86s-18.04 64.95-71.68 105.65c-53.64 40.8-121.02 40.8-121.02 40.8h-624.44" transform="translate(0 -1197.6)" stroke="#080"/>
   <path id="path19178" d="m1479 1028.6-364.4-631.19s-4.6078-7.981-6.993-16.883c-2.3852-8.9017-2.3852-18.117-2.3852-18.117v-38.744" stroke="#f00"/>
  </g>
  <g stroke="#080" stroke-width="15">
   <path id="path19294" d="m416.37 324.14 237.5-411.36h78.29"/>
   <path id="path19298" d="m21.079-4.9521h331.83s13.397 0 25-6.6987 18.301-18.301 18.301-18.301l18.632-32.272s6.6987-11.603 18.301-18.301c11.603-6.6987 25-6.6987 25-6.6987h39.145"/>
   <path id="path19296" d="m575.58-87.224-78.29 0.00003s-13.398-0.00004-25-6.6987-18.301-18.301-18.301-18.301l-18.632-32.272s-6.6987-11.603-18.301-18.301c-11.603-6.6987-25-6.6987-25-6.6987h-331.83"/>
  </g>
  <path id="path4621" d="m1105.2 783.67v57.5s0 23.817-16.841 40.659c-16.841 16.841-40.659 16.841-40.659 16.841h-287.5" stroke="#f00" stroke-width="8"/>
 </g>
 <g id="layer17" transform="translate(0,450)">
  <g stroke-linejoin="round" fill="none">
   <g stroke="gainsboro" stroke-width="10">
    <circle id="circle15213" cy="563.95" cx="1011.5" r="25"/>
    
    <circle id="circle15215" cx="961.46" cy="650.55" r="25"/>
    <circle id="circle15217" cy="600.55" cx="874.86" r="25"/>
    <circle id="circle15219" cx="924.86" cy="513.95" r="25" />
    <circle id="circle15221" cx="1035.7" cy="410.78" r="25" />
    <circle id="place-north" cy="263.2" cx="989.58" r="25"/>
   </g>
   <g stroke="#000" stroke-width="10">
    <circle id="place-state" cx="1011.5" cy="563.95" r="30"/> 
    <circle id="place-dwnxg" cy="650.55" cx="961.46" r="30"/>
    <circle id="place-pktrm" cx="874.86" cy="600.55" r="30"/>
    <circle id="place-gover" cy="513.95" cx="924.86" r="30"/>
    <circle id="place-haecl" cy="410.78" cx="1035.7" r="30"/>
   </g>
  </g>
  <g stroke-linejoin="round" fill-rule="evenodd" stroke="#000" stroke-width="5" fill="gainsboro">
   <circle id="place-ccmnl" cy="165.9" cx="911.45" r="25"/>
   <circle id="place-sull" cx="861.47" cy="50.255" r="25" />
   <circle id="place-mlmnl" cy="-309.75" cx="861.47" r="25" />
   <circle id="place-welln" cx="861.47" cy="-189.75" r="25" />
   <circle id="place-ogmnl" cx="861.47" cy="-429.75" r="25" />
   <circle id="place-lech" cy="240.17" cx="732.16" r="25"/>
   <circle id="place-knncl" cy="538.13" cx="674.11" r="25"/>
   <circle id="place-aport" cx="1238.2" cy="471.25" r="25"/>
   <circle id="place-wimnl" cy="401.73" cx="1278.3" r="25"/>
   <circle id="place-orhte" cx="1318.5" cy="332.22" r="25"/>
   <circle id="place-sdmnl" cy="262.7" cx="1358.6" r="25"/>
   <circle id="place-bmmnl" cx="1398.7" cy="193.19" r="25"/>
   <circle id="place-wondl" cy="54.155" cx="1479" r="25"/>
   <circle id="place-hsmnl" cx="416.37" cy="1071.8" r="25"/>
   <circle id="mattapan" cy="1646.3" cx="760.22" r="25" fill="#888"/>
   <circle id="place-spmnl" cx="862.07" cy="240.17" r="25"/>
  </g>
  <circle id="place-north1" stroke-linejoin="round" cx="989.58" stroke="#000" cy="263.2" r="25" stroke-width="10" fill="none"/>
  <g stroke-linejoin="round" fill-rule="evenodd" stroke="#000" stroke-width="5" fill="gainsboro">
   <circle id="place-rbmnl" cx="1438.9" cy="123.67" r="25"/>
   <circle id="place-armnl" cx="732.16" cy="660.41" r="25"/>
   <circle id="place-bomnl" cy="423.01" cx="871.81" r="25"/>
   <circle id="place-cntsq" cx="568.99" cy="530.19" r="25"/>
   <circle id="place-harsq" cy="471.61" cx="427.57" r="25"/>
   <circle id="place-portr" cx="368.99" cy="330.19" r="25"/>
   <circle id="place-davis" cy="188.77" cx="310.41" r="25"/>
   <circle id="place-alfcl" cx="168.39" cy="131.87" r="25"/>
   <circle id="place-boyls" cy="645.09" cx="808.94" r="25"/>
   <circle id="place-chncl" cx="892.56" cy="716.91" r="25" />
   <circle id="place-tumnl" cy="761.78" cx="809.25" r="25"/>
   <circle id="place-coecl" cx="653.87" cy="660.41" r="25"/>
   <circle id="place-hymnl" cy="660.41" cx="575.58" r="25"/>
   <circle id="place-bbsta" cx="716.98" cy="782.69" r="25"/>
   <circle id="place-mvbcl" cx="1179.2" cy="535.43" r="25"/>
   <circle id="place-aqucl" cy="568.42" cx="1098.5" r="25"/>
   <circle id="place-sstat" cx="1064" cy="735.22" r="25"/>
   <circle id="place-andrw" cy="956.31" cx="1105.2" r="25"/>
   <circle id="place-brdwy" cx="1105.2" cy="841.31" r="25"/>
   <circle id="place-nqncy" cy="1383.2" cx="1252.1" r="25"/>
   <circle id="place-wlsta" cx="1306.5" cy="1477.5" r="25"/>
   <circle id="place-qnctr" cx="1364" cy="1577.1" r="25"/>
   <circle id="place-qamnl" cy="1676.6" cx="1421.5" r="25"/>
   <circle id="place-brntn" cx="1479" cy="1776.2" r="25" />
   <circle id="place-jfk" cy="1071.3" cx="1105.2" r="25"/>
   <circle id="place-shmnl" cx="1105.2" cy="1186.3" r="25"/>
   <circle id="place-fldcr" cy="1301.3" cx="1105.2" r="25"/>
   <circle id="place-smmnl" cx="1105.2" cy="1416.3" r="25"/>
   <circle id="place-jaksn" cy="1095.5" cx="506.65" r="25"/>
   <circle id="place-masta" cx="647.46" cy="851.6" r="25"/>place-hymnl
   <circle id="place-sbmnl" cy="1177.8" cx="459.15" r="25"/>
   <circle id="place-rugg" cx="599.96" cy="933.87" r="25"/>
   <circle id="place-grnst" cy="1260" cx="411.65" r="25"/>
   <circle id="place-lake" cy="578.14" cx="60.224" r="25" />
   <circle id="place-alsgr" cy="578.14" cx="300.21" r="25" />
   <circle id="place-clmnl" cx="107.72" cy="660.41" r="25"/>
   <circle id="place-river" cy="742.69" cx="21.079" r="25"/>
   <circle id="place-asmnl" cx="1105.2" cy="1531.3" r="25"/>
   <circle id="place-chmnl" cy="561.77" cx="776.85" r="25"/>
  </g>
  <g fill-rule="evenodd">
   <path id="path15131" d="m966.46 641.9-9.9902 17.305a10 10 0 0 0 4.9941 1.3477 10 10 0 0 0 10 -10 10 10 0 0 0 -5.0039 -8.6524z" fill="#f80"/>
   <path id="path15133" d="m961.46 640.55a10 10 0 0 0 -10 10 10 10 0 0 0 5.0059 8.6523l9.9902-17.305a10 10 0 0 0 -4.9961 -1.3476z" fill="#f00"/>
   <path id="path15135" d="m929.85 505.3-9.9902 17.305a10 10 0 0 0 4.9941 1.3477 10 10 0 0 0 10 -10 10 10 0 0 0 -5.0039 -8.6524z" fill="#080"/>
   <path id="path15137" d="m924.86 503.95a10 10 0 0 0 -10 10 10 10 0 0 0 5.0059 8.6523l9.9902-17.305a10 10 0 0 0 -4.9961 -1.3476z" fill="#00f"/>
   <path id="path15139" d="m879.85 591.9-9.9902 17.305a10 10 0 0 0 4.9941 1.3477 10 10 0 0 0 10 -10 10 10 0 0 0 -5.0039 -8.6524z" fill="#080"/>
   <path id="path15141" d="m874.86 590.55a10 10 0 0 0 -10 10 10 10 0 0 0 5.0059 8.6523l9.9902-17.305a10 10 0 0 0 -4.9961 -1.3476z" fill="#f00"/>
   <path id="circle14781" d="m1016.5 555.3-9.9902 17.305a10 10 0 0 0 4.9941 1.3477 10 10 0 0 0 10 -10 10 10 0 0 0 -5.0039 -8.6524z" fill="#f80"/>
   <path id="path14790" d="m1011.5 553.95a10 10 0 0 0 -10 10 10 10 0 0 0 5.0059 8.6523l9.9902-17.305a10 10 0 0 0 -4.9961 -1.3476z" fill="#00f"/>
   <path id="path14806" d="m1030.7 402.13 9.9902 17.305a10 10 0 0 1 -4.9941 1.3477 10 10 0 0 1 -10 -10 10 10 0 0 1 5.0039 -8.6524z" fill="#080"/>
   <path id="path14808" d="m1035.7 400.78a10 10 0 0 1 10 10 10 10 0 0 1 -5.0059 8.6523l-9.9902-17.305a10 10 0 0 1 4.9961 -1.3476z" fill="#f80"/>
   <path id="path14905" d="m984.58 254.55 9.9902 17.305a10 10 0 0 1 -4.9941 1.3477 10 10 0 0 1 -10 -10 10 10 0 0 1 5.0039 -8.6524z" fill="#080"/>
   <path id="path14907" d="m989.58 253.2a10 10 0 0 1 10 10 10 10 0 0 1 -5.0059 8.6523l-9.9902-17.305a10 10 0 0 1 4.9961 -1.3476z" fill="#f80"/>
  </g>
  <g stroke-linejoin="round" fill-rule="evenodd" stroke="#000" stroke-width="5" fill="gainsboro">
   <circle id="place-rcmnl" cy="1016.1" cx="552.46" r="25"/>
   <circle id="place-forhl" cx="364.15" cy="1342.3" r="25"/>
   <circle id="place-astao" cy="-69.745" cx="861.47" r="25"/>
   <circle id="place-kencl" cx="497.29" cy="660.41" r="25"/>
  </g>Allston Street
 </g>
 <g id="layer18" transform="translate(0,450)">
  <g font-family="&apos;Bitstream Vera Sans&apos;" fill="#000000">
   <g font-size="25px">
    <text id="text15225" style="word-spacing:0px;letter-spacing:-1px" xml:space="preserve" line-height="89.99999762%" y="-420" x="890"><tspan id="tspan15227" font-size="25px" y="-420" x="890" font-weight="bold">OAK GROVE</tspan></text>
    <text id="text15236" style="word-spacing:0px;letter-spacing:-1px" xml:space="preserve" line-height="89.99999762%" y="-300" x="890"><tspan id="tspan15238" x="890" y="-300">Malden</tspan><tspan id="tspan15392" x="890" y="-277.5">Center</tspan></text>
    <text id="text15240" style="word-spacing:0px;letter-spacing:-1px" xml:space="preserve" line-height="89.99999762%" y="-180" x="890"><tspan id="tspan15242" x="890" y="-180">Wellington</tspan></text>
    <text id="text15244" style="word-spacing:0px;letter-spacing:-1px" xml:space="preserve" line-height="89.99999762%" y="50" x="890"><tspan id="tspan15246" x="890" y="50">Sullivan</tspan><tspan id="tspan15260" x="890" y="72.5">Square</tspan></text>
    <text id="text15248" style="word-spacing:0px;letter-spacing:-1px" xml:space="preserve" line-height="89.99999762%" y="144" x="920"><tspan id="tspan15250" x="920" y="144">Community</tspan><tspan id="tspan15262" x="920" y="166.5">  College</tspan></text>
    <text id="text15252" style="word-spacing:0px;letter-spacing:-1px" xml:space="preserve" line-height="89.99999762%" y="240" x="1000"><tspan id="tspan15254" x="1000" y="240">North</tspan><tspan id="tspan15264" x="1000" y="262.5">  Station</tspan></text>
   </g>
   <text id="text15256" style="word-spacing:0px;letter-spacing:-1px" xml:space="preserve" font-size="22.5px" line-height="89.99999762%" y="420" x="1060"><tspan id="tspan15258" font-size="25px" y="420" x="1060">Haymarket</tspan></text>
   <g font-size="25px">
    <g>
     <text id="text15266" style="word-spacing:0px;letter-spacing:-1px;text-anchor:end;text-align:end" xml:space="preserve" line-height="89.99999762%" y="60" x="1451"><tspan id="tspan15268" y="60" x="1450" font-weight="bold">WONDERLAND</tspan></text>
     <text id="text15270" style="word-spacing:0px;letter-spacing:-1px;text-anchor:end;text-align:end" xml:space="preserve" line-height="89.99999762%" y="130" x="1411"><tspan id="tspan15272" x="1410" y="130">Revere Beach</tspan></text>
     <text id="text15274" style="word-spacing:0px;letter-spacing:-1px;text-anchor:end;text-align:end" xml:space="preserve" line-height="89.99999762%" y="200" x="1371"><tspan id="tspan15276" x="1370" y="200">Beachmont</tspan></text>
     <text id="text15278" style="word-spacing:0px;letter-spacing:-1px;text-anchor:end;text-align:end" xml:space="preserve" line-height="89.99999762%" y="270" x="1331"><tspan id="tspan15280" x="1330" y="270">Suffolk Downs</tspan></text>
     <text id="text15282" style="word-spacing:0px;letter-spacing:-1px;text-anchor:middle;text-align:center" xml:space="preserve" line-height="89.99999762%" y="340" x="1380.5"><tspan id="tspan15284" x="1380" y="340">Orient</tspan><tspan id="tspan15386" x="1383.4795" y="362.5">Heights  </tspan></text>
     <text id="text15286" style="word-spacing:0px;letter-spacing:-1px" xml:space="preserve" line-height="89.99999762%" y="410" x="1284"><tspan id="tspan15288" x="1284" y="410">  Wood</tspan><tspan id="tspan15388" x="1284" y="432.5">Island</tspan></text>
     <text id="text15290" style="word-spacing:0px;letter-spacing:-1px" xml:space="preserve" line-height="89.99999762%" y="490" x="1260"><tspan id="tspan15292" x="1260" y="490">Airport</tspan></text>
     <text id="text15294" style="word-spacing:0px;letter-spacing:-1px" xml:space="preserve" line-height="89.99999762%" y="550" x="1200"><tspan id="tspan15296" x="1200" y="550">Maverick</tspan></text>
     <text id="text15298" style="word-spacing:0px;letter-spacing:-1px;text-anchor:middle;text-align:center" xml:space="preserve" line-height="89.99999762%" y="610" x="1130.5"><tspan id="tspan15300" x="1130" y="610">Aquarium</tspan></text>
     <text id="text15302" style="word-spacing:0px;letter-spacing:-1px" xml:space="preserve" line-height="89.99999762%" y="550" x="1034"><tspan id="tspan15304" x="1034" y="550">State</tspan></text>
     <text id="text15306" style="word-spacing:0px;letter-spacing:-1px" xml:space="preserve" line-height="89.99999762%" y="660" x="990"><tspan id="tspan15308" x="990" y="660">Downtown Crossing</tspan></text>
     <text id="text15310" style="word-spacing:0px;letter-spacing:-1px" xml:space="preserve" line-height="89.99999762%" y="740" x="1090"><tspan id="tspan15312" x="1090" y="740">South Station</tspan></text>
     <text id="text15314" style="word-spacing:0px;letter-spacing:-1px" xml:space="preserve" line-height="89.99999762%" y="850" x="1130"><tspan id="tspan15316" x="1130" y="850">Broadway</tspan></text>
     <text id="text15318" style="word-spacing:0px;letter-spacing:-1px" xml:space="preserve" line-height="89.99999762%" y="960" x="1130"><tspan id="tspan15320" x="1130" y="960">Andrew</tspan></text>
     <text id="text15322" style="word-spacing:0px;letter-spacing:-1px" xml:space="preserve" line-height="89.99999762%" y="1080" x="1130"><tspan id="tspan15324" x="1130" y="1080">JFK/UMass</tspan></text>
     <text id="text15326" style="word-spacing:0px;letter-spacing:-1px;text-anchor:end;text-align:end" xml:space="preserve" line-height="89.99999762%" y="1196" x="1081"><tspan id="tspan15328" x="1080" y="1196">Savin Hill</tspan></text>
     <text id="text15330" style="word-spacing:0px;letter-spacing:-1px" xml:space="preserve" line-height="89.99999762%" y="1360" x="1260"><tspan id="tspan15332" x="1260" y="1360">North</tspan><tspan id="tspan15390" x="1260" y="1382.5">  Quincy</tspan></text>
     <text id="text15334" style="word-spacing:0px;letter-spacing:-1px" xml:space="preserve" line-height="89.99999762%" y="1486" x="1330"><tspan id="tspan15336" x="1330" y="1486">Wollaston</tspan></text>
     <text id="text15338" style="word-spacing:0px;letter-spacing:-1px;text-anchor:end;text-align:end" xml:space="preserve" line-height="89.99999762%" y="1586" x="1341"><tspan id="tspan15340" x="1340" y="1586">Quincy Center</tspan></text>
     <text id="text15342" style="word-spacing:0px;letter-spacing:-1px;text-anchor:end;text-align:end" xml:space="preserve" line-height="89.99999762%" y="1686" x="1401"><tspan id="tspan15344" x="1400" y="1686">Quincy Adams</tspan></text>
     <text id="text15346" style="word-spacing:0px;letter-spacing:-1px;text-anchor:end;text-align:end" xml:space="preserve" line-height="89.99999762%" y="1786" x="1461"><tspan id="tspan15348" y="1786" x="1460" font-weight="bold">BRAINTREE</tspan></text>
     <text id="text15350" style="word-spacing:0px;letter-spacing:-1px;text-anchor:middle;text-align:center" xml:space="preserve" line-height="89.99999762%" y="1300" x="1044.5"><tspan id="tspan15352" x="1044" y="1300">Fields</tspan><tspan id="tspan15394" x="1044" y="1322.5">Corner</tspan></text>
     <text id="text15354" style="word-spacing:0px;letter-spacing:-1px;text-anchor:end;text-align:end" xml:space="preserve" line-height="89.99999762%" y="1426" x="1081"><tspan id="tspan15356" x="1080" y="1426">Shawmut</tspan></text>
     <text id="text15358" style="word-spacing:0px;letter-spacing:-1px;text-anchor:end;text-align:end" xml:space="preserve" line-height="89.99999762%" y="1540" x="1081"><tspan id="tspan15360" y="1540" x="1080" font-weight="bold">ASHMONT</tspan></text>
     <text id="text15362" style="word-spacing:0px;letter-spacing:-1px;text-anchor:middle;text-align:center" xml:space="preserve" line-height="89.99999762%" y="1622.5" x="760.5"><tspan id="tspan15364" y="1622.5" x="760" font-weight="bold">MATTAPAN</tspan></text>
    </g>
    <text id="text15366" style="word-spacing:0px;letter-spacing:-1px;text-anchor:middle;text-align:center" font-weight="bold" xml:space="preserve" line-height="89.99999762%" y="402.5" x="870.5"><tspan id="tspan15368" x="870" y="402.5">BOWDOIN</tspan></text>
    <text id="text15370" style="word-spacing:0px;letter-spacing:-1px;text-anchor:middle;text-align:center" font-weight="bold" xml:space="preserve" line-height="89.99999762%" y="222.5" x="730.5"><tspan id="tspan15372" x="730" y="222.5">LECHMERE</tspan></text>
    <text id="text15374" style="word-spacing:0px;letter-spacing:-1px;text-anchor:middle;text-align:center" xml:space="preserve" line-height="89.99999762%" y="282.5" x="847.02051"><tspan id="tspan15376" x="850" y="282.5">Science Park / </tspan><tspan id="tspan15398" x="846.52051" y="305">West End</tspan></text>
   </g>
   <text id="text15378" style="word-spacing:0px;letter-spacing:-1px;text-anchor:end;text-align:end" xml:space="preserve" font-size="25px" line-height="89.99999762%" y="520" x="904.04102"><tspan id="tspan15380" y="520" x="910">Gov&apos;t  </tspan><tspan id="tspan15396" y="542.5" x="903.04102">Center</tspan></text>
   <g font-size="25px">
    <text id="text15382" style="word-spacing:0px;letter-spacing:-1px;text-anchor:end;text-align:end" xml:space="preserve" line-height="89.99999762%" y="602.5" x="981"><tspan id="tspan15384" x="980" y="602.5">Park St</tspan></text>
    <g font-weight="bold">
     <text id="text15400" style="word-spacing:0px;letter-spacing:-1px;text-anchor:middle;text-align:center" line-height="89.99999762%" y="112.5" x="190.5" xml:space="preserve"><tspan id="tspan15402" y="112.5" x="190">ALEWIFE</tspan></text>
     <text id="text15404" style="word-spacing:0px;letter-spacing:-1px" xml:space="preserve" line-height="89.99999762%" y="624" x="50"><tspan id="tspan15406" x="50" y="624"><tspan id="tspan15408" fill="#004400" font-size="35px">B</tspan> Boston College</tspan></text>
     <text id="text15410" style="word-spacing:0px;letter-spacing:-1px" line-height="89.99999762%" y="706" x="100" xml:space="preserve"><tspan id="tspan15412" y="706" x="100"><tspan id="tspan15426" fill="#004400" font-size="35px">C</tspan> Cleveland Circle</tspan></text>
     <text id="text15416" style="word-spacing:0px;letter-spacing:-1px" xml:space="preserve" line-height="89.99999762%" y="786" x="10"><tspan id="tspan15418" x="10" y="786"><tspan id="tspan15422" fill="#004400" font-size="35px">D</tspan> Riverside</tspan></text>
    </g>
   </g>
  </g>
  <text id="text15443" style="word-spacing:0px;letter-spacing:-1px;text-anchor:end;text-align:end" font-weight="bold" font-size="25px" line-height="89.99999762%" y="1080" x="391" font-family="&apos;Bitstream Vera Sans&apos;" xml:space="preserve" fill="#004400"><tspan id="tspan15445" y="1080" x="390"><tspan id="tspan15447" style="text-anchor:end;text-align:end" fill="#004400" font-size="35px">E</tspan><tspan id="tspan15544" fill="#000000"> Heath St</tspan></tspan></text>
  <g font-size="25px" font-family="&apos;Bitstream Vera Sans&apos;" fill="#000000">
   <g>
    <text id="text15465" style="word-spacing:0px;letter-spacing:-1px" line-height="89.99999762%" y="192.5" x="330" xml:space="preserve"><tspan id="tspan15467" y="192.5" x="330">Davis</tspan></text>
    <text id="text15469" style="word-spacing:0px;letter-spacing:-1px" xml:space="preserve" line-height="89.99999762%" y="342.5" x="390"><tspan id="tspan15471" x="390" y="342.5">Porter</tspan></text>
    <text id="text15473" style="word-spacing:0px;letter-spacing:-1px" line-height="89.99999762%" y="460" x="440" xml:space="preserve"><tspan id="tspan15475" y="460" x="440">Harvard</tspan></text>
   </g>
   <text id="text15483" style="word-spacing:0px;letter-spacing:-1px;text-anchor:middle;text-align:center" font-weight="bold" line-height="89.99999762%" y="1380" x="360.5" xml:space="preserve"><tspan id="tspan15485" y="1380" x="360">FOREST HILLS</tspan></text>
   <g>
    <text id="text15487" style="word-spacing:0px;letter-spacing:-1px" line-height="89.99999762%" y="756" x="880" xml:space="preserve"><tspan id="tspan15489" y="756" x="880">Chinatown</tspan></text>
    <text id="text15491" style="word-spacing:0px;letter-spacing:-1px;text-anchor:middle;text-align:center" xml:space="preserve" line-height="89.99999762%" y="800" x="830.5"><tspan id="tspan15493" x="830" y="800">Tufts</tspan><tspan id="tspan15525" x="830" y="822.5">Medical</tspan></text>
    <text id="text15495" style="word-spacing:0px;letter-spacing:-1px;text-anchor:middle;text-align:center" line-height="89.99999762%" y="820" x="720.5" xml:space="preserve"><tspan id="tspan15497" y="820" x="720">Back</tspan><tspan id="tspan15527" y="842.5" x="720">Bay</tspan></text>
    <text id="text15499" style="word-spacing:0px;letter-spacing:-1px" xml:space="preserve" line-height="89.99999762%" y="880" x="660"><tspan id="tspan15501" x="660" y="880">Mass Ave</tspan></text>
    <text id="text15503" style="word-spacing:0px;letter-spacing:-1px" line-height="89.99999762%" y="950" x="620" xml:space="preserve"><tspan id="tspan15505" y="950" x="620">Ruggles</tspan></text>
    <text id="text15507" style="word-spacing:0px;letter-spacing:-1px" xml:space="preserve" line-height="89.99999762%" y="1030" x="570"><tspan id="tspan15509" x="570" y="1030">Roxbury Crossing</tspan></text>
    <text id="text15511" style="word-spacing:0px;letter-spacing:-1px" line-height="89.99999762%" y="1110" x="530" xml:space="preserve"><tspan id="tspan15513" y="1110" x="530">Jackson Square</tspan></text>
    <text id="text15546" style="word-spacing:0px;letter-spacing:-1px" xml:space="preserve" line-height="89.99999762%" y="1190" x="480"><tspan id="tspan15548" x="480" y="1190">Stony Brook</tspan></text>
    <text id="text15550" style="word-spacing:0px;letter-spacing:-1px" line-height="89.99999762%" y="1270" x="430" xml:space="preserve"><tspan id="tspan15552" y="1270" x="430">Green St</tspan></text>
    <text id="text15554" style="word-spacing:0px;letter-spacing:-1px;text-anchor:middle;text-align:center" line-height="89.99999762%" y="630" x="520.5" xml:space="preserve"><tspan id="tspan15558" y="630" x="520">Kenmore</tspan></text>
    <text id="text15562" style="word-spacing:0px;letter-spacing:-1px;text-anchor:middle;text-align:center" xml:space="preserve" line-height="89.99999762%" y="500" x="570.5"><tspan id="tspan15564" x="570" y="500">Central</tspan></text>
    <text id="text15566" style="word-spacing:0px;letter-spacing:-1px;text-anchor:middle;text-align:center" line-height="89.99999762%" y="490" x="674.5" xml:space="preserve"><tspan id="tspan15568" y="490" x="674">Kendall/</tspan><tspan id="tspan15574" y="512.5" x="674">MIT</tspan></text>
    <text id="text15570" style="word-spacing:0px;letter-spacing:-1px;text-anchor:middle;text-align:center" xml:space="preserve" line-height="89.99999762%" y="490" x="780.5"><tspan id="tspan15572" x="780" y="490">Charles/</tspan><tspan id="tspan15576" x="780" y="512.5">MGH</tspan></text>
    <text id="textadd" style="word-spacing:0px;letter-spacing:-1px;text-anchor:middle;text-align:center" line-height="89.99999762%" y="550" x="280.5" xml:space="preserve"><tspan id="tspan15580" y="550" x="280">Allston Street</tspan></text>
    <text id="text15578" style="word-spacing:0px;letter-spacing:-1px;text-anchor:middle;text-align:center" line-height="89.99999762%" y="630" x="650.5" xml:space="preserve"><tspan id="tspan15580" y="630" x="650">Copley</tspan></text>
    <text id="text15582" style="word-spacing:0px;letter-spacing:-1px;text-anchor:end;text-align:end" xml:space="preserve" line-height="89.99999762%" y="624" x="831"><tspan id="tspan15584" x="830" y="624">Boylston</tspan></text>
    <text id="text15586" style="word-spacing:0px;letter-spacing:-1px;text-anchor:middle;text-align:center" line-height="89.99999762%" y="700" x="730.5" xml:space="preserve"><tspan id="tspan15588" y="700" x="730">Arlington</tspan></text>
    <text id="text17092" style="word-spacing:0px;letter-spacing:-1px" line-height="89.99999762%" y="-60" x="890" xml:space="preserve"><tspan id="tspan17094" y="-60" x="890">Assembly</tspan></text>
    <text id="text17098" style="word-spacing:0px;letter-spacing:-1px;text-anchor:middle;text-align:center" xml:space="preserve" line-height="89.99999762%" y="710" x="520.5"><tspan id="tspan17100" x="520" y="710">Hynes</tspan><tspan id="tspan17102" x="520" y="732.5">Convention</tspan><tspan id="tspan17108" x="520" y="755">Center</tspan></text>
   </g>
  </g>
  <path id="path4630" d="m575.58 660.41v39.587h-15.58" stroke="#000" stroke-width="1px" fill="none"/>
 </g>
</svg>
